<?xml version="1.0" encoding="utf-8"?>
<!-- Generator: Adobe Illustrator 19.2.1, SVG Export Plug-In . SVG Version: 6.00 Build 0)  -->
<svg version="1.1" id="Layer_1" xmlns="http://www.w3.org/2000/svg" xmlns:xlink="http://www.w3.org/1999/xlink" x="0px" y="0px"
	 width="841.9px" height="595.3px" viewBox="0 0 841.9 595.3" enable-background="new 0 0 841.9 595.3" xml:space="preserve">
<g>
	<rect fill="#EF4130" width="841.9" height="595.3"/>
	<g>
		<g>
			<g>
				<g>
					<path fill="#6C2611" d="M219,66.4h-3.6c-2.5,0-4.6,2.4-4.6,5.3v12.4h-7.7c-2.5,0-4.6,2.4-4.6,5.3v3.2c0,2.9,2,5.3,4.6,5.3h8.2
						V109c0,0-16.4,0-24.1,17.5l13.4,30.7v15.9c0,0-1.1,27.5-16.1,48.2v10.1c0,0-25,14.1-14.1,36.1H219V66.4z"/>
					<path fill="#85321E" d="M209.3,109.2c-4.6,0.6-16.1,3.5-22.2,17.3H219v-17.1h-7.7L209.3,109.2z"/>
					<path fill="#85321E" d="M200.6,157.2L200.6,157.2c-3.8,0-6.8,3.6-6.8,7.9c0,4.4,3.1,7.9,6.8,7.9l0,0H219v-15.9H200.6z"/>
					<rect x="184.5" y="221.3" fill="#85321E" width="34.5" height="9.9"/>
					<polygon fill="#85321E" points="167.6,278.1 219,278.1 219,267.5 170.2,267.5 					"/>
				</g>
				<g>
					<path fill="#5D1907" d="M219,66.4h3.6c2.5,0,4.6,2.4,4.6,5.3v12.4h7.7c2.5,0,4.6,2.4,4.6,5.3v3.2c0,2.9-2,5.3-4.6,5.3h-8.2V109
						c0,0,16.4,0,24.1,17.5l-13.4,30.7v15.9c0,0,1.1,27.5,16.1,48.2v10.1c0,0,25,14.1,14.1,36.1H219V66.4z"/>
					<path fill="#762817" d="M228.7,109.2c4.6,0.6,16.1,3.5,22.2,17.3H219v-17.1h7.7L228.7,109.2z"/>
					<path fill="#762817" d="M237.4,157.2L237.4,157.2c3.8,0,6.8,3.6,6.8,7.9c0,4.4-3.1,7.9-6.8,7.9l0,0H219v-15.9H237.4z"/>
					
						<rect x="219" y="221.3" transform="matrix(-1 -5.218815e-011 5.218815e-011 -1 472.5298 452.3971)" fill="#762817" width="34.5" height="9.9"/>
					<polygon fill="#762817" points="270.4,278.1 219,278.1 219,267.5 267.8,267.5 					"/>
				</g>
				<circle fill="#FFFFFF" cx="203.1" cy="117.8" r="2.7"/>
			</g>
			<g>
				<g>
					<path fill="#EFF9FE" d="M89.7,66.4h-3.6c-2.5,0-4.6,2.4-4.6,5.3v12.4h-7.7c-2.5,0-4.6,2.4-4.6,5.3v3.2c0,2.9,2,5.3,4.6,5.3H82
						V109c0,0-16.4,0-24.1,17.5l13.4,30.7v15.9c0,0-1.1,27.5-16.1,48.2v10.1c0,0-25,14.1-14.1,36.1h48.7V66.4z"/>
					<path fill="#E2ECF1" d="M80,109.2c-4.6,0.6-16.1,3.5-22.2,17.3h31.8v-17.1H82L80,109.2z"/>
					<path fill="#E2ECF1" d="M71.3,157.2L71.3,157.2c-3.8,0-6.8,3.6-6.8,7.9c0,4.4,3.1,7.9,6.8,7.9l0,0h18.4v-15.9H71.3z"/>
					<rect x="55.2" y="221.3" fill="#E2ECF1" width="34.5" height="9.9"/>
					<polygon fill="#E2ECF1" points="38.3,278.1 89.7,278.1 89.7,267.5 40.9,267.5 					"/>
				</g>
				<g>
					<path fill="#D5E7F0" d="M89.7,66.4h3.6c2.5,0,4.6,2.4,4.6,5.3v12.4h7.7c2.5,0,4.6,2.4,4.6,5.3v3.2c0,2.9-2,5.3-4.6,5.3h-8.2
						V109c0,0,16.4,0,24.1,17.5l-13.4,30.7v15.9c0,0,1.1,27.5,16.1,48.2v10.1c0,0,25,14.1,14.1,36.1H89.7V66.4z"/>
					<path fill="#C0D9E6" d="M99.4,109.2c4.6,0.6,16.1,3.5,22.2,17.3H89.7v-17.1h7.7L99.4,109.2z"/>
					<path fill="#C0D9E6" d="M108.1,157.2L108.1,157.2c3.8,0,6.8,3.6,6.8,7.9c0,4.4-3.1,7.9-6.8,7.9l0,0H89.7v-15.9H108.1z"/>
					
						<rect x="89.7" y="221.3" transform="matrix(-1 -5.218815e-011 5.218815e-011 -1 213.9489 452.3971)" fill="#C0D9E6" width="34.5" height="9.9"/>
					<polygon fill="#C0D9E6" points="141.1,278.1 89.7,278.1 89.7,267.5 138.5,267.5 					"/>
				</g>
				<circle fill="#FFFFFF" cx="73.8" cy="117.8" r="2.7"/>
			</g>
		</g>
		<g>
			<g>
				<g>
					<path fill="#6C2611" d="M374.1,123.8h-32.8l-3.7,9.1c0,0,18.2,8.8,18.2,29.6h18.2V123.8z"/>
					<path fill="#85321E" d="M355.7,178.4h18.4v-15.9h-18.4c-4.1,0-7.5,3.4-7.5,7.5v0.9C348.2,175,351.6,178.4,355.7,178.4z"/>
					<path fill="#6C2611" d="M355.5,178.4c0,0-1.1,22.2-16.1,42.9v10.1c0,0-25,14.1-14.1,36.1h48.8v-89.1H355.5z"/>
					<rect x="339.4" y="221.3" fill="#85321E" width="34.7" height="9.9"/>
					<polygon fill="#85321E" points="322.5,278.1 374.1,278.1 374.1,267.5 325.1,267.5 					"/>
					<path fill="#85321E" d="M374.1,105.1c-10.3,0-18.7,8.4-18.7,18.7h18.7V105.1z"/>
				</g>
				<g>
					<path fill="#5D1907" d="M374.1,123.8h32.8l3.7,9.1c0,0-18.2,8.8-18.2,29.6h-18.2V123.8z"/>
					<path fill="#762817" d="M392.5,178.4h-18.4v-15.9h18.4c4.1,0,7.5,3.4,7.5,7.5v0.9C400,175,396.6,178.4,392.5,178.4z"/>
					<path fill="#5D1907" d="M392.7,178.4c0,0,1.1,22.2,16.1,42.9v10.1c0,0,25,14.1,14.1,36.1h-48.8v-89.1H392.7z"/>
					
						<rect x="374.1" y="221.3" transform="matrix(-1 -4.463908e-011 4.463908e-011 -1 782.869 452.3971)" fill="#762817" width="34.7" height="9.9"/>
					<polygon fill="#762817" points="425.7,278.1 374.1,278.1 374.1,267.5 423.1,267.5 					"/>
					<path fill="#762817" d="M374.1,105.1c10.3,0,18.7,8.4,18.7,18.7h-18.7V105.1z"/>
				</g>
				<circle fill="#FFFFFF" cx="364.7" cy="114.5" r="2.7"/>
				<g>
					<path fill="#85321E" d="M365.4,99.8c0,4.8,3.9,8.6,8.6,8.6V91.1C369.3,91.1,365.4,95,365.4,99.8z"/>
					<path fill="#762817" d="M382.7,99.8c0,4.8-3.9,8.6-8.6,8.6V91.1C378.9,91.1,382.7,95,382.7,99.8z"/>
				</g>
			</g>
			<g>
				<g>
					<path fill="#EFF9FE" d="M503.7,123.8H471l-3.7,9.1c0,0,18.2,8.8,18.2,29.6h18.2V123.8z"/>
					<path fill="#E2ECF1" d="M485.3,178.4h18.4v-15.9h-18.4c-4.1,0-7.5,3.4-7.5,7.5v0.9C477.8,175,481.2,178.4,485.3,178.4z"/>
					<path fill="#EFF9FE" d="M485.1,178.4c0,0-1.1,22.2-16.1,42.9v10.1c0,0-25,14.1-14.1,36.1h48.8v-89.1H485.1z"/>
					<rect x="469" y="221.3" fill="#E2ECF1" width="34.7" height="9.9"/>
					<polygon fill="#E2ECF1" points="452.1,278.1 503.7,278.1 503.7,267.5 454.7,267.5 					"/>
					<path fill="#E2ECF1" d="M503.7,105.1c-10.3,0-18.7,8.4-18.7,18.7h18.7V105.1z"/>
				</g>
				<g>
					<path fill="#D5E7F0" d="M503.7,123.8h32.8l3.7,9.1c0,0-18.2,8.8-18.2,29.6h-18.2V123.8z"/>
					<path fill="#C0D9E6" d="M522.1,178.4h-18.4v-15.9h18.4c4.1,0,7.5,3.4,7.5,7.5v0.9C529.6,175,526.2,178.4,522.1,178.4z"/>
					<path fill="#D5E7F0" d="M522.3,178.4c0,0,1.1,22.2,16.1,42.9v10.1c0,0,25,14.1,14.1,36.1h-48.8v-89.1H522.3z"/>
					
						<rect x="503.7" y="221.3" transform="matrix(-1 -4.463908e-011 4.463908e-011 -1 1042.1594 452.3971)" fill="#C0D9E6" width="34.7" height="9.9"/>
					<polygon fill="#C0D9E6" points="555.3,278.1 503.7,278.1 503.7,267.5 552.7,267.5 					"/>
					<path fill="#C0D9E6" d="M503.7,105.1c10.3,0,18.7,8.4,18.7,18.7h-18.7V105.1z"/>
				</g>
				<circle fill="#FFFFFF" cx="494.4" cy="114.5" r="2.7"/>
				<g>
					<path fill="#E2ECF1" d="M495.1,99.8c0,4.8,3.9,8.6,8.6,8.6V91.1C498.9,91.1,495.1,95,495.1,99.8z"/>
					<path fill="#C0D9E6" d="M512.4,99.8c0,4.8-3.9,8.6-8.6,8.6V91.1C508.5,91.1,512.4,95,512.4,99.8z"/>
				</g>
			</g>
		</g>
		<g>
			<g>
				<g>
					<g>
						<g>
							<path fill="#6C2611" d="M640.7,125.1c0,4.8,3.9,8.6,8.6,8.6v-17.3C644.6,116.5,640.7,120.3,640.7,125.1z"/>
						</g>
						<path fill="#6C2611" d="M634.1,177.9L634.1,177.9v13.2c0,0-0.9,22.8-13.4,39.9v8.3c0,0-20.7,11.6-11.7,29.9h40.3V131.2h-5.8
							l-9.7,12.7C626.2,153.9,626.3,168,634.1,177.9z"/>
						<path fill="#85321E" d="M634.1,177.9L634.1,177.9c-3.1,0-5.7,2.9-5.7,6.6c0,3.6,2.5,6.6,5.7,6.6l0,0h15.2v-13.2H634.1z"/>
						<rect x="620.8" y="231" fill="#85321E" width="28.6" height="8.2"/>
						<polygon fill="#85321E" points="606.8,278.1 649.4,278.1 649.4,269.3 608.9,269.3 						"/>
					</g>
					<g>
						<g>
							<g>
								<g>
									<path fill="#5D1907" d="M658,125.1c0,4.8-3.9,8.6-8.6,8.6v-17.3C654.1,116.5,658,120.3,658,125.1z"/>
								</g>
							</g>
						</g>
						<path fill="#5D1907" d="M664.6,177.9L664.6,177.9v13.2c0,0,0.9,22.8,13.4,39.9v8.3c0,0,20.7,11.6,11.7,29.9h-40.3V131.2h5.8
							l9.7,12.7C672.6,153.9,672.5,168,664.6,177.9z"/>
						<path fill="#762817" d="M664.6,177.9L664.6,177.9c3.1,0,5.7,2.9,5.7,6.6c0,3.6-2.5,6.6-5.7,6.6l0,0h-15.2v-13.2H664.6z"/>
						
							<rect x="649.4" y="231" transform="matrix(-1 -4.488200e-011 4.488200e-011 -1 1327.3405 470.2044)" fill="#762817" width="28.6" height="8.2"/>
						<polygon fill="#762817" points="692,278.1 649.4,278.1 649.4,269.3 689.8,269.3 						"/>
					</g>
				</g>
				<circle fill="#FFFFFF" cx="637.7" cy="152.6" r="2.7"/>
			</g>
			<g>
				<g>
					<g>
						<g>
							<g>
								<g>
									<path fill="#EFF9FE" d="M752.4,125.1c0,4.8,3.9,8.6,8.6,8.6v-17.3C756.2,116.5,752.4,120.3,752.4,125.1z"/>
								</g>
							</g>
						</g>
						<path fill="#EFF9FE" d="M745.8,177.9L745.8,177.9v13.2c0,0-0.9,22.8-13.4,39.9v8.3c0,0-20.7,11.6-11.7,29.9H761V131.2h-5.8
							l-9.7,12.7C737.8,153.9,737.9,168,745.8,177.9z"/>
						<path fill="#E2ECF1" d="M745.8,177.9L745.8,177.9c-3.1,0-5.7,2.9-5.7,6.6c0,3.6,2.5,6.6,5.7,6.6l0,0H761v-13.2H745.8z"/>
						<rect x="732.4" y="231" fill="#E2ECF1" width="28.6" height="8.2"/>
						<polygon fill="#E2ECF1" points="718.4,278.1 761,278.1 761,269.3 720.6,269.3 						"/>
					</g>
					<g>
						<g>
							<g>
								<g>
									<path fill="#D5E7F0" d="M769.7,125.1c0,4.8-3.9,8.6-8.6,8.6v-17.3C765.8,116.5,769.7,120.3,769.7,125.1z"/>
								</g>
							</g>
						</g>
						<path fill="#D5E7F0" d="M776.3,177.9L776.3,177.9l0,13.2c0,0,0.9,22.8,13.4,39.9v8.3c0,0,20.7,11.6,11.7,29.9H761V131.2h5.8
							l9.7,12.7C784.2,153.9,784.1,168,776.3,177.9z"/>
						<path fill="#C0D9E6" d="M776.3,177.9L776.3,177.9c3.1,0,5.7,2.9,5.7,6.6c0,3.6-2.5,6.6-5.7,6.6l0,0H761v-13.2H776.3z"/>
						
							<rect x="761" y="231" transform="matrix(-1 -4.488200e-011 4.488200e-011 -1 1550.6304 470.2044)" fill="#C0D9E6" width="28.6" height="8.2"/>
						<polygon fill="#C0D9E6" points="803.6,278.1 761,278.1 761,269.3 801.4,269.3 						"/>
					</g>
				</g>
				<circle fill="#FFFFFF" cx="747.9" cy="152.6" r="2.7"/>
			</g>
		</g>
		<g>
			<g>
				<g>
					<g>
						<g>
							<g>
								<g>
									<g>
										<path fill="#6C2611" d="M637,428.2c0,11.4,9.3,20.7,20.7,20.7v-41.4C646.3,407.6,637,416.8,637,428.2z"/>
									</g>
								</g>
							</g>
						</g>
					</g>
					<path fill="#6C2611" d="M644.8,443.7v11.2c0,0-0.8,19.4-11.4,33.9v7.1c0,0-17.6,9.9-9.9,25.5h34.3v-77.7L644.8,443.7z"/>
					<path fill="#85321E" d="M644.8,443.7L644.8,443.7c-2.7,0-4.8,2.5-4.8,5.6c0,3.1,2.2,5.6,4.8,5.6l0,0h13v-11.2H644.8z"/>
					<rect x="633.4" y="488.8" fill="#85321E" width="24.3" height="7"/>
					<polygon fill="#85321E" points="621.5,528.8 657.7,528.8 657.7,521.4 623.4,521.4 					"/>
				</g>
				<g>
					<g>
						<g>
							<g>
								<g>
									<g>
										<path fill="#5D1907" d="M678.4,428.2c0,11.4-9.3,20.7-20.7,20.7v-41.4C669.1,407.6,678.4,416.8,678.4,428.2z"/>
									</g>
								</g>
							</g>
						</g>
					</g>
					<path fill="#5D1907" d="M670.7,443.7v11.2c0,0,0.8,19.4,11.4,33.9v7.1c0,0,17.6,9.9,9.9,25.5h-34.3v-77.7L670.7,443.7z"/>
					<path fill="#762817" d="M670.7,443.7L670.7,443.7c2.7,0,4.8,2.5,4.8,5.6c0,3.1-2.2,5.6-4.8,5.6l0,0h-13v-11.2H670.7z"/>
					
						<rect x="657.7" y="488.8" transform="matrix(-1 -4.493840e-011 4.493840e-011 -1 1339.7782 984.6039)" fill="#762817" width="24.3" height="7"/>
					<polygon fill="#762817" points="693.9,528.8 657.7,528.8 657.7,521.4 692.1,521.4 					"/>
				</g>
				<circle fill="#FFFFFF" cx="645.6" cy="422.1" r="2.3"/>
			</g>
			<g>
				<g>
					<g>
						<g>
							<g>
								<g>
									<g>
										<path fill="#EFF9FE" d="M732,428.2c0,11.4,9.3,20.7,20.7,20.7v-41.4C741.2,407.6,732,416.8,732,428.2z"/>
									</g>
								</g>
							</g>
						</g>
					</g>
					<path fill="#EFF9FE" d="M739.7,443.7v11.2c0,0-0.8,19.4-11.4,33.9v7.1c0,0-17.6,9.9-9.9,25.5h34.3v-77.7L739.7,443.7z"/>
					<path fill="#E2ECF1" d="M739.7,443.7L739.7,443.7c-2.7,0-4.8,2.5-4.8,5.6c0,3.1,2.2,5.6,4.8,5.6l0,0h13v-11.2H739.7z"/>
					<rect x="728.3" y="488.8" fill="#E2ECF1" width="24.3" height="7"/>
					<polygon fill="#E2ECF1" points="716.4,528.8 752.6,528.8 752.6,521.4 718.3,521.4 					"/>
				</g>
				<g>
					<g>
						<g>
							<g>
								<g>
									<g>
										<path fill="#D5E7F0" d="M773.3,428.2c0,11.4-9.3,20.7-20.7,20.7v-41.4C764.1,407.6,773.3,416.8,773.3,428.2z"/>
									</g>
								</g>
							</g>
						</g>
					</g>
					<path fill="#D5E7F0" d="M765.6,443.7v11.2c0,0,0.8,19.4,11.4,33.9v7.1c0,0,17.6,9.9,9.9,25.5h-34.3v-77.7L765.6,443.7z"/>
					<path fill="#C0D9E6" d="M765.6,443.7L765.6,443.7c2.7,0,4.8,2.5,4.8,5.6c0,3.1-2.2,5.6-4.8,5.6l0,0h-13v-11.2H765.6z"/>
					
						<rect x="752.6" y="488.8" transform="matrix(-1 -4.493840e-011 4.493840e-011 -1 1529.6206 984.6039)" fill="#C0D9E6" width="24.3" height="7"/>
					<polygon fill="#C0D9E6" points="788.9,528.8 752.6,528.8 752.6,521.4 787,521.4 					"/>
				</g>
				<circle fill="#FFFFFF" cx="740.5" cy="422.1" r="2.3"/>
			</g>
		</g>
		<g>
			<g>
				<path fill="#EFF9FE" d="M69.9,481.8v8.3c0,0-20.7,11.6-11.7,29.9h40.3v-38.3L69.9,481.8z"/>
				<rect x="69.9" y="481.8" fill="#E2ECF1" width="28.6" height="8.2"/>
				<polygon fill="#E2ECF1" points="55.9,528.8 98.5,528.8 98.5,520 58.1,520 				"/>
				<path fill="#D5E7F0" d="M127.1,481.8v8.3c0,0,20.7,11.6,11.7,29.9H98.5v-38.3L127.1,481.8z"/>
				
					<rect x="98.5" y="481.8" transform="matrix(-1 -4.488200e-011 4.488200e-011 -1 225.6666 971.7286)" fill="#C0D9E6" width="28.6" height="8.2"/>
				<polygon fill="#C0D9E6" points="141.1,528.8 98.5,528.8 98.5,520 139,520 				"/>
				<path fill="#EFF9FE" d="M131.2,413.3c0,0-11.8-2.1-22.4-15.8h-2.8c-4.2,0-7.6-3.4-7.6-7.6v-5.3c0,0-30.5,6.3-36.5,41.3
					c-4.7,27.3,8,55.9,8,55.9h28.6v-51.2h30l4.9-11.1L131.2,413.3z"/>
				<path fill="#D5E7F0" d="M127,481.8l7.2-8c0,0-23.9-20.1-23.9-43.2H98.5v51.2H127z"/>
				<circle fill="#FFFFFF" cx="67.2" cy="503.6" r="2.7"/>
			</g>
			<g>
				<path fill="#6C2611" d="M181.6,481.8v8.3c0,0-20.7,11.6-11.7,29.9h40.3v-38.3L181.6,481.8z"/>
				<rect x="181.6" y="481.8" fill="#85321E" width="28.6" height="8.2"/>
				<polygon fill="#85321E" points="167.6,528.8 210.2,528.8 210.2,520 169.7,520 				"/>
				<path fill="#5D1907" d="M238.8,481.8v8.3c0,0,20.7,11.6,11.7,29.9h-40.3v-38.3L238.8,481.8z"/>
				
					<rect x="210.2" y="481.8" transform="matrix(-1 -4.488200e-011 4.488200e-011 -1 448.9565 971.7286)" fill="#762817" width="28.6" height="8.2"/>
				<polygon fill="#762817" points="252.8,528.8 210.2,528.8 210.2,520 250.6,520 				"/>
				<path fill="#6C2611" d="M242.8,413.3c0,0-11.8-2.1-22.4-15.8h-2.8c-4.2,0-7.6-3.4-7.6-7.6v-5.3c0,0-30.5,6.3-36.5,41.3
					c-4.7,27.3,8,55.9,8,55.9h28.6v-51.2h30l4.9-11.1L242.8,413.3z"/>
				<path fill="#5D1907" d="M238.6,481.8l7.2-8c0,0-23.9-20.1-23.9-43.2h-11.8v51.2H238.6z"/>
				<circle fill="#FFFFFF" cx="178.9" cy="503.6" r="2.7"/>
			</g>
		</g>
		<g>
			<g>
				<g>
					<g>
						<path fill="#6C2611" d="M367.8,428.7v13.2c0,0-0.9,22.8-13.4,39.9v8.3c0,0-20.7,11.6-11.7,29.9h40.3v-91.3H367.8z"/>
					</g>
					<path fill="#85321E" d="M367.8,428.7L367.8,428.7c-3.1,0-5.7,2.9-5.7,6.6c0,3.6,2.5,6.6,5.7,6.6l0,0h15.2v-13.2H367.8z"/>
					<rect x="354.5" y="481.8" fill="#85321E" width="28.6" height="8.2"/>
					<polygon fill="#85321E" points="340.5,528.8 383.1,528.8 383.1,520 342.6,520 					"/>
					<path fill="#6C2611" d="M375.3,396.9v6.4H371v-6.4h-9.2v28.6c0,1.8,1.4,3.2,3.2,3.2h18.1v-31.8H375.3z"/>
					<g>
						<path fill="#5D1907" d="M398.3,428.7v13.2c0,0,0.9,22.8,13.4,39.9v8.3c0,0,20.7,11.6,11.7,29.9h-40.3v-91.3H398.3z"/>
					</g>
					<path fill="#762817" d="M398.3,428.7L398.3,428.7c3.1,0,5.7,2.9,5.7,6.6c0,3.6-2.5,6.6-5.7,6.6l0,0h-15.2v-13.2H398.3z"/>
					
						<rect x="383.1" y="481.8" transform="matrix(-1 -4.488200e-011 4.488200e-011 -1 794.7642 971.7286)" fill="#762817" width="28.6" height="8.2"/>
					<polygon fill="#762817" points="425.7,528.8 383.1,528.8 383.1,520 423.5,520 					"/>
					<path fill="#5D1907" d="M395.9,396.9v6.4h-4.3v-6.4h-8.5v31.8h18.1c1.8,0,3.2-1.4,3.2-3.2v-28.6H395.9z"/>
				</g>
				<circle fill="#FFFFFF" cx="353.1" cy="502.9" r="2.7"/>
			</g>
			<g>
				<g>
					<g>
						<path fill="#EFF9FE" d="M479.5,428.7v13.2c0,0-0.9,22.8-13.4,39.9v8.3c0,0-20.7,11.6-11.7,29.9h40.3v-91.3H479.5z"/>
					</g>
					<path fill="#E2ECF1" d="M479.5,428.7L479.5,428.7c-3.1,0-5.7,2.9-5.7,6.6c0,3.6,2.5,6.6,5.7,6.6l0,0h15.2v-13.2H479.5z"/>
					<rect x="466.1" y="481.8" fill="#E2ECF1" width="28.6" height="8.2"/>
					<polygon fill="#E2ECF1" points="452.1,528.8 494.7,528.8 494.7,520 454.3,520 					"/>
					<path fill="#EFF9FE" d="M486.9,396.9v6.4h-4.3v-6.4h-9.2v28.6c0,1.8,1.4,3.2,3.2,3.2h18.1v-31.8H486.9z"/>
					<g>
						<path fill="#D5E7F0" d="M510,428.7v13.2c0,0,0.9,22.8,13.4,39.9v8.3c0,0,20.7,11.6,11.7,29.9h-40.3v-91.3H510z"/>
					</g>
					<path fill="#C0D9E6" d="M510,428.7L510,428.7c3.1,0,5.7,2.9,5.7,6.6c0,3.6-2.5,6.6-5.7,6.6l0,0h-15.2v-13.2H510z"/>
					
						<rect x="494.7" y="481.8" transform="matrix(-1 -4.488200e-011 4.488200e-011 -1 1018.054 971.7286)" fill="#C0D9E6" width="28.6" height="8.2"/>
					<polygon fill="#C0D9E6" points="537.3,528.8 494.7,528.8 494.7,520 535.1,520 					"/>
					<path fill="#D5E7F0" d="M507.5,396.9v6.4h-4.3v-6.4h-8.5v31.8h18.1c1.8,0,3.2-1.4,3.2-3.2v-28.6H507.5z"/>
				</g>
				<circle fill="#FFFFFF" cx="464.7" cy="502.9" r="2.7"/>
			</g>
		</g>
	</g>
</g>
</svg>
